<svg xmlns:dc="http://purl.org/dc/elements/1.1/" xmlns:cc="http://creativecommons.org/ns#" xmlns:rdf="http://www.w3.org/1999/02/22-rdf-syntax-ns#" xmlns:svg="http://www.w3.org/2000/svg" xmlns="http://www.w3.org/2000/svg" xmlns:xlink="http://www.w3.org/1999/xlink" id="svg500357" viewBox="0 0 1024 768" height="768px" width="1024px" version="1.1">
  <metadata id="metadata500363">
    <rdf:rdf>
      <cc:work rdf:about="">
        <dc:format>image/svg+xml</dc:format>
        <dc:type rdf:resource="http://purl.org/dc/dcmitype/StillImage"></dc:type>
      </cc:work>
    </rdf:rdf>
  </metadata>
  <defs id="defs500361"></defs>
  <linearGradient spreadMethod="pad" y2="30%" x2="-10%" y1="120%" x1="30%" id="3d_gradient2-logo-7c1013f4-966c-407b-b1ab-cbc979cd5546">
    <stop id="stop500338" stop-opacity="1" stop-color="#ffffff" offset="0%"></stop>
    <stop id="stop500340" stop-opacity="1" stop-color="#000000" offset="100%"></stop>
  </linearGradient>
  <linearGradient gradientTransform="rotate(-30)" spreadMethod="pad" y2="30%" x2="-10%" y1="120%" x1="30%" id="3d_gradient3-logo-7c1013f4-966c-407b-b1ab-cbc979cd5546">
    <stop id="stop500343" stop-opacity="1" stop-color="#ffffff" offset="0%"></stop>
    <stop id="stop500345" stop-opacity="1" stop-color="#cccccc" offset="50%"></stop>
    <stop id="stop500347" stop-opacity="1" stop-color="#000000" offset="100%"></stop>
  </linearGradient>
  <g id="logo-group">
    <image xlink:href="" id="container" x="272" y="144" width="480" height="480" style="display: none;" transform="translate(0 0)"></image>
    <g id="logo-center" transform="translate(149.3139316666667 0)">
      <image xlink:href="" id="icon_container" style="display: none;" x="0" y="0"></image>
      <g id="slogan" style="font-style:normal;font-weight:300;font-size:32px;line-height:1;font-family:'Montserrat Light Alt1';font-variant-ligatures:none;text-align:center;text-anchor:middle" transform="translate(0 0)">
        <path id="path500365" style="font-style:normal;font-weight:300;font-size:32px;line-height:1;font-family:'Montserrat Light Alt1';font-variant-ligatures:none;text-align:center;text-anchor:middle" d="m 497.67525,-22.4 h -1.632 v 19.456 l -15.232,-19.456 h -1.376 V 0 h 1.632 V -19.456 L 496.33125,0 h 1.344 z" stroke-width="0" stroke-linejoin="miter" stroke-miterlimit="2" fill="#663333" stroke="#663333" transform="translate(0 483.80874756557785) translate(50 -131.40207843650703) scale(9.09830707305835) translate(-479.43525 22.4)"></path>
        <path id="path500367" style="font-style:normal;font-weight:300;font-size:32px;line-height:1;font-family:'Montserrat Light Alt1';font-variant-ligatures:none;text-align:center;text-anchor:middle" d="m 507.22575,-0.96 c 1.28,0.736 2.688,1.088 4.288,1.088 1.568,0 2.976,-0.352 4.256,-1.088 1.28,-0.704 2.272,-1.728 3.008,-3.008 0.704,-1.28 1.088,-2.752 1.088,-4.384 0,-1.6 -0.384,-3.072 -1.088,-4.352 -0.736,-1.28 -1.728,-2.304 -3.008,-3.04 -1.28,-0.704 -2.688,-1.088 -4.256,-1.088 -1.6,0 -3.008,0.384 -4.288,1.088 -1.28,0.736 -2.272,1.76 -2.976,3.04 -0.736,1.28 -1.088,2.752 -1.088,4.352 0,1.632 0.352,3.104 1.088,4.384 0.704,1.28 1.696,2.304 2.976,3.008 z m 7.712,-1.248 c -1.024,0.608 -2.144,0.896 -3.424,0.896 -1.28,0 -2.432,-0.288 -3.456,-0.896 -1.024,-0.576 -1.824,-1.408 -2.4,-2.496 -0.576,-1.056 -0.864,-2.272 -0.864,-3.648 0,-1.344 0.288,-2.56 0.864,-3.648 0.576,-1.056 1.376,-1.888 2.4,-2.496 1.024,-0.576 2.176,-0.896 3.456,-0.896 1.28,0 2.4,0.32 3.424,0.896 1.024,0.608 1.824,1.44 2.4,2.496 0.576,1.088 0.896,2.304 0.896,3.648 0,1.376 -0.32,2.592 -0.896,3.648 -0.576,1.088 -1.376,1.92 -2.4,2.496 z" stroke-width="0" stroke-linejoin="miter" stroke-miterlimit="2" fill="#663333" stroke="#663333" transform="translate(0 483.80874756557785) translate(265.87098276891874 -80.74270465371816) scale(9.09830707305835) translate(-503.16175 16.832)"></path>
        <path id="path500369" style="font-style:normal;font-weight:300;font-size:32px;line-height:1;font-family:'Montserrat Light Alt1';font-variant-ligatures:none;text-align:center;text-anchor:middle" d="m 548.17025,-16.704 h -1.472 l -5.632,14.88 -5.664,-14.88 h -1.376 l -5.696,14.912 -5.568,-14.912 h -1.536 L 527.56225,0 h 1.472 l 5.664,-14.496 5.632,14.496 h 1.504 z" stroke-width="0" stroke-linejoin="miter" stroke-miterlimit="2" fill="#663333" stroke="#663333" transform="translate(0 483.80874756557785) translate(430.2273508901824 -79.5781213483667) scale(9.09830707305835) translate(-521.22625 16.704)"></path>
      </g>
      <g id="title" style="font-style:normal;font-weight:300;font-size:72px;line-height:1;font-family:'Montserrat Light Alt1';font-variant-ligatures:none;text-align:center;text-anchor:middle" transform="translate(0 0)">
        <path id="path500372" style="font-style:normal;font-weight:300;font-size:72px;line-height:1;font-family:'Montserrat Light Alt1';font-variant-ligatures:none;text-align:center;text-anchor:middle" d="m 412.84531,-27.216 h -32.616 v 3.24 h 32.616 z m 0,-23.184 h -32.616 v 3.312 h 32.616 z m -32.616,47.088 V 0 h 32.616 v -3.312 z" stroke-width="0" stroke-linejoin="miter" stroke-miterlimit="2" fill="#663333" stroke="#663333" transform="translate(0 228.30666912907077) translate(50 -16.84000000000001) scale(2.3333333333333335) translate(-380.22931 50.4)"></path>
        <path id="path500374" style="font-style:normal;font-weight:300;font-size:72px;line-height:1;font-family:'Montserrat Light Alt1';font-variant-ligatures:none;text-align:center;text-anchor:middle" d="m 449.69019,-1.512 c 3.312,1.296 6.84,1.872 10.584,1.872 3.96,0 7.344,-0.576 10.08,-1.8 2.736,-1.152 4.752,-2.808 6.048,-4.824 1.296,-2.016 2.016,-4.248 2.016,-6.696 0,-2.952 -0.792,-5.328 -2.376,-7.056 -1.584,-1.728 -3.456,-3.096 -5.616,-3.96 -2.232,-0.864 -5.184,-1.728 -8.856,-2.664 -3.312,-0.792 -5.976,-1.584 -7.848,-2.304 -1.944,-0.72 -3.528,-1.728 -4.824,-3.096 -1.296,-1.296 -1.944,-3.096 -1.944,-5.4 0,-2.952 1.152,-5.4 3.6,-7.272 2.376,-1.872 5.904,-2.808 10.584,-2.808 2.304,0 4.68,0.36 7.128,1.08 2.448,0.72 4.68,1.8 6.696,3.168 l 1.368,-2.952 c -2.016,-1.368 -4.32,-2.448 -6.984,-3.312 -2.736,-0.792 -5.472,-1.224 -8.208,-1.224 -4.032,0 -7.344,0.648 -10.008,1.8 -2.664,1.224 -4.608,2.88 -5.904,4.896 -1.296,2.016 -1.944,4.248 -1.944,6.696 0,3.024 0.72,5.472 2.304,7.272 1.584,1.8 3.456,3.096 5.688,3.96 2.232,0.864 5.184,1.8 8.928,2.664 3.24,0.792 5.832,1.512 7.776,2.232 1.872,0.72 3.528,1.8 4.824,3.096 1.296,1.368 1.944,3.168 1.944,5.4 0,2.952 -1.224,5.328 -3.672,7.128 -2.448,1.872 -6.12,2.736 -10.872,2.736 -3.312,0 -6.48,-0.576 -9.504,-1.728 -3.024,-1.152 -5.4,-2.736 -7.128,-4.608 l -1.656,2.736 c 1.872,2.016 4.464,3.672 7.776,4.968 z" stroke-width="0" stroke-linejoin="miter" stroke-miterlimit="2" fill="#663333" stroke="#663333" transform="translate(0 228.30666912907077) translate(193.93138666666675 -17.68) scale(2.3333333333333335) translate(-441.91419 50.76)"></path>
        <path id="path500376" style="font-style:normal;font-weight:300;font-size:72px;line-height:1;font-family:'Montserrat Light Alt1';font-variant-ligatures:none;text-align:center;text-anchor:middle" d="m 531.94119,-50.4 h -3.672 v 23.184 h -33.696 V -50.4 h -3.672 V 0 h 3.672 v -23.976 h 33.696 V 0 h 3.672 z" stroke-width="0" stroke-linejoin="miter" stroke-miterlimit="2" fill="#663333" stroke="#663333" transform="translate(0 228.30666912907077) translate(308.23438666666664 -16.84000000000001) scale(2.3333333333333335) translate(-490.90119 50.4)"></path>
        <path id="path500378" style="font-style:normal;font-weight:300;font-size:72px;line-height:1;font-family:'Montserrat Light Alt1';font-variant-ligatures:none;text-align:center;text-anchor:middle" d="m 557.53381,-2.952 c 3.96,2.232 8.424,3.312 13.392,3.312 4.896,0 9.36,-1.08 13.392,-3.312 3.96,-2.16 7.056,-5.256 9.36,-9.144 2.304,-3.888 3.456,-8.208 3.456,-13.104 0,-4.824 -1.152,-9.216 -3.456,-13.104 -2.304,-3.888 -5.4,-6.912 -9.36,-9.144 -4.032,-2.16 -8.496,-3.312 -13.392,-3.312 -4.968,0 -9.432,1.152 -13.392,3.384 -4.032,2.232 -7.128,5.256 -9.432,9.144 -2.304,3.888 -3.384,8.28 -3.384,13.032 0,4.824 1.08,9.144 3.384,13.032 2.304,3.888 5.4,6.984 9.432,9.216 z m 24.84,-2.952 c -3.456,1.944 -7.272,2.88 -11.448,2.88 -4.248,0 -8.064,-0.936 -11.52,-2.88 -3.456,-1.872 -6.12,-4.536 -8.064,-7.92 -2.016,-3.384 -2.952,-7.2 -2.952,-11.376 0,-4.176 0.936,-7.92 2.952,-11.304 1.944,-3.384 4.608,-6.048 8.064,-7.992 3.456,-1.872 7.272,-2.88 11.52,-2.88 4.176,0 7.992,1.008 11.448,2.88 3.384,1.944 6.048,4.608 8.064,7.992 1.944,3.384 2.952,7.128 2.952,11.304 0,4.176 -1.008,7.992 -2.952,11.376 -2.016,3.384 -4.68,6.048 -8.064,7.92 z" stroke-width="0" stroke-linejoin="miter" stroke-miterlimit="2" fill="#663333" stroke="#663333" transform="translate(0 228.30666912907077) translate(433.8064999999999 -17.68) scale(2.3333333333333335) translate(-544.71781 50.76)"></path>
        <path id="path500380" style="font-style:normal;font-weight:300;font-size:72px;line-height:1;font-family:'Montserrat Light Alt1';font-variant-ligatures:none;text-align:center;text-anchor:middle" d="m 642.84594,-45.864 c -3.6,-3.024 -8.568,-4.536 -14.904,-4.536 h -18.072 v 3.312 h 18.072 c 5.328,0 9.432,1.224 12.312,3.6 2.808,2.376 4.248,5.76 4.248,10.08 0,4.392 -1.44,7.776 -4.248,10.08 -2.88,2.376 -6.984,3.528 -12.312,3.528 h -18.072 V 0 h 3.672 v -16.488 h 14.4 c 6.336,0 11.304,-1.44 14.904,-4.464 3.6,-3.024 5.4,-7.128 5.4,-12.456 0,-5.256 -1.8,-9.432 -5.4,-12.456 z" stroke-width="0" stroke-linejoin="miter" stroke-miterlimit="2" fill="#663333" stroke="#663333" transform="translate(0 228.30666912907077) translate(585.8281366666665 -16.84000000000001) scale(2.3333333333333335) translate(-609.86994 50.4)"></path>
      </g>
      <image xlink:href="" id="icon" style="display: none;" x="0" y="0"></image>
    </g>
  </g>
</svg>