<svg xmlns:dc="http://purl.org/dc/elements/1.1/" xmlns:cc="http://creativecommons.org/ns#" xmlns:rdf="http://www.w3.org/1999/02/22-rdf-syntax-ns#" xmlns:svg="http://www.w3.org/2000/svg" xmlns="http://www.w3.org/2000/svg" xmlns:xlink="http://www.w3.org/1999/xlink" id="svg426613" viewBox="0 0 1024 768" height="768px" width="1024px" version="1.1">
  <metadata id="metadata426619">
    <rdf:rdf>
      <cc:work rdf:about="">
        <dc:format>image/svg+xml</dc:format>
        <dc:type rdf:resource="http://purl.org/dc/dcmitype/StillImage"></dc:type>
      </cc:work>
    </rdf:rdf>
  </metadata>
  <defs id="defs426617"></defs>
  <linearGradient spreadMethod="pad" y2="30%" x2="-10%" y1="120%" x1="30%" id="3d_gradient2-logo-cfdbdab0-5bb1-4227-818f-e6d7d2ad7a28">
    <stop id="stop426594" stop-opacity="1" stop-color="#ffffff" offset="0%"></stop>
    <stop id="stop426596" stop-opacity="1" stop-color="#000000" offset="100%"></stop>
  </linearGradient>
  <linearGradient gradientTransform="rotate(-30)" spreadMethod="pad" y2="30%" x2="-10%" y1="120%" x1="30%" id="3d_gradient3-logo-cfdbdab0-5bb1-4227-818f-e6d7d2ad7a28">
    <stop id="stop426599" stop-opacity="1" stop-color="#ffffff" offset="0%"></stop>
    <stop id="stop426601" stop-opacity="1" stop-color="#cccccc" offset="50%"></stop>
    <stop id="stop426603" stop-opacity="1" stop-color="#000000" offset="100%"></stop>
  </linearGradient>
  <g id="logo-group">
    <image xlink:href="" id="container" x="272" y="144" width="480" height="480" transform="translate(0 0)" style="display: none;"></image>
    <g id="logo-center" transform="translate(0 0)">
      <image xlink:href="" id="icon_container" x="0" y="0" style="display: none;"></image>
      <g id="slogan" style="font-style:normal;font-weight:700;font-size:32px;line-height:1;font-family:'Brandmark1 Bold Color';font-variant-ligatures:none;text-align:center;text-anchor:middle" transform="translate(0 0)">
        <path id="path426621" style="font-style:normal;font-weight:700;font-size:32px;line-height:1;font-family:'Brandmark1 Bold Color';font-variant-ligatures:none;text-align:center;text-anchor:middle" d="m 432.34475,1.312 c 2.272,0 4.416,-0.672 5.984,-1.856 0.864,-0.672 1.536,-1.472 2.016,-2.4 0.48,-0.992 0.736,-2.08 0.736,-3.264 0,-2.176 -0.736,-3.872 -2.304,-5.12 -1.28,-1.088 -3.008,-1.76 -4.832,-2.464 -0.192,-0.096 -0.416,-0.16 -0.608,-0.256 -1.312,-0.48 -2.528,-0.96 -3.296,-1.472 -0.512,-0.384 -0.864,-0.8 -0.864,-1.536 0.032,-1.632 1.6,-2.208 2.944,-2.208 1.44,0 3.168,0.736 4.768,2.048 l 0.896,0.736 3.072,-4 -0.864,-0.672 c -2.368,-1.92 -5.088,-2.912 -7.872,-2.912 -2.144,0 -4.16,0.704 -5.664,2.016 -1.536,1.344 -2.4,3.136 -2.4,5.12 0,1.12 0.256,2.176 0.704,3.072 0.448,0.832 1.024,1.536 1.856,2.176 1.408,1.12 3.136,1.824 4.96,2.496 0.096,0.032 0.224,0.064 0.352,0.128 1.312,0.48 2.432,0.928 3.136,1.44 0.64,0.448 0.864,0.96 0.864,1.728 0,0.704 -0.256,1.248 -0.832,1.664 -0.608,0.448 -1.6,0.704 -2.72,0.704 -0.96,0 -1.952,-0.224 -2.88,-0.672 -0.96,-0.448 -1.856,-1.152 -2.528,-1.984 l -0.832,-1.056 -3.328,3.936 0.672,0.736 c 2.336,2.496 5.504,3.872 8.864,3.872 z" stroke-width="0" stroke-linejoin="miter" stroke-miterlimit="2" fill="#4a310a" stroke="#4a310a" transform="translate(5.684341886080802e-14 411.096) translate(333.2825 25.936) scale(2) translate(-422.80875 24.064)"></path>
        <path id="path426623" style="font-style:normal;font-weight:700;font-size:32px;line-height:1;font-family:'Brandmark1 Bold Color';font-variant-ligatures:none;text-align:center;text-anchor:middle" d="M 457.88325,-8.416 V 1.12 h 5.024 v -24.96 h -5.024 v 10.656 h -9.632 V -23.84 h -5.024 V 1.12 h 5.024 v -9.536 z" stroke-width="0" stroke-linejoin="miter" stroke-miterlimit="2" fill="#4a310a" stroke="#4a310a" transform="translate(5.684341886080802e-14 411.096) translate(374.11950000000013 26.384) scale(2) translate(-443.22725 23.84)"></path>
        <path id="path426625" style="font-style:normal;font-weight:700;font-size:32px;line-height:1;font-family:'Brandmark1 Bold Color';font-variant-ligatures:none;text-align:center;text-anchor:middle" d="m 477.80975,1.248 c 1.696,0 3.328,-0.32 4.896,-0.992 1.504,-0.64 2.848,-1.536 4.032,-2.72 1.152,-1.152 2.048,-2.496 2.688,-4 0.672,-1.568 0.992,-3.2 0.992,-4.928 0,-1.696 -0.32,-3.328 -0.992,-4.896 -0.64,-1.504 -1.536,-2.848 -2.688,-4.032 -1.184,-1.152 -2.528,-2.048 -4.032,-2.688 -1.568,-0.672 -3.2,-0.992 -4.896,-0.992 -1.728,0 -3.36,0.32 -4.928,0.992 -1.504,0.64 -2.848,1.536 -4,2.688 -1.184,1.184 -2.08,2.528 -2.72,4.032 -0.672,1.568 -0.992,3.2 -0.992,4.896 0,1.728 0.32,3.36 0.992,4.928 0.64,1.504 1.536,2.848 2.72,4 1.152,1.184 2.496,2.08 4,2.72 1.568,0.672 3.2,0.992 4.928,0.992 z m 0,-20.224 c 2.016,0 3.936,0.8 5.376,2.24 1.408,1.408 2.208,3.328 2.208,5.376 0,2.016 -0.8,3.936 -2.208,5.376 -1.44,1.408 -3.36,2.208 -5.376,2.208 -2.048,0 -3.968,-0.8 -5.376,-2.208 -1.44,-1.44 -2.24,-3.36 -2.24,-5.376 0,-2.048 0.8,-3.968 2.24,-5.376 1.408,-1.44 3.328,-2.24 5.376,-2.24 z" stroke-width="0" stroke-linejoin="miter" stroke-miterlimit="2" fill="#4a310a" stroke="#4a310a" transform="translate(5.684341886080802e-14 411.096) translate(418.0045000000001 26.064) scale(2) translate(-465.16975 24)"></path>
        <path id="path426627" style="font-style:normal;font-weight:700;font-size:32px;line-height:1;font-family:'Brandmark1 Bold Color';font-variant-ligatures:none;text-align:center;text-anchor:middle" d="m 501.72075,-23.84 h -9.056 V 1.12 h 5.024 v -8.672 h 3.552 c 1.312,0 2.496,-0.16 3.552,-0.48 1.152,-0.32 2.112,-0.832 2.944,-1.472 0.832,-0.704 1.504,-1.6 1.952,-2.624 0.448,-1.024 0.672,-2.24 0.672,-3.552 0,-2.4 -0.704,-4.416 -2.08,-5.824 -1.504,-1.536 -3.712,-2.336 -6.56,-2.336 z m -0.736,11.52 h -3.296 v -6.752 h 3.744 c 1.248,0 2.24,0.288 2.88,0.864 0.608,0.544 0.928,1.376 0.928,2.464 0,1.056 -0.32,1.888 -0.896,2.432 -0.736,0.672 -1.856,0.992 -3.36,0.992 z" stroke-width="0" stroke-linejoin="miter" stroke-miterlimit="2" fill="#4a310a" stroke="#4a310a" transform="translate(5.684341886080802e-14 411.096) translate(472.99450000000013 26.384) scale(2) translate(-492.66475 23.84)"></path>
        <path id="path426629" style="font-style:normal;font-weight:700;font-size:32px;line-height:1;font-family:'Brandmark1 Bold Color';font-variant-ligatures:none;text-align:center;text-anchor:middle" d="m 526.00125,-14.464 11.072,15.584 h 4.544 v -24.96 h -5.024 v 15.744 l -11.168,-15.744 h -4.448 V 1.12 h 5.024 z" stroke-width="0" stroke-linejoin="miter" stroke-miterlimit="2" fill="#4a310a" stroke="#4a310a" transform="translate(5.684341886080802e-14 411.096) translate(529.6195 26.384) scale(2) translate(-520.97725 23.84)"></path>
        <path id="path426631" style="font-style:normal;font-weight:700;font-size:32px;line-height:1;font-family:'Brandmark1 Bold Color';font-variant-ligatures:none;text-align:center;text-anchor:middle" d="m 556.55975,1.248 c 1.696,0 3.328,-0.32 4.896,-0.992 1.504,-0.64 2.848,-1.536 4.032,-2.72 1.152,-1.152 2.048,-2.496 2.688,-4 0.672,-1.568 0.992,-3.2 0.992,-4.928 0,-1.696 -0.32,-3.328 -0.992,-4.896 -0.64,-1.504 -1.536,-2.848 -2.688,-4.032 -1.184,-1.152 -2.528,-2.048 -4.032,-2.688 -1.568,-0.672 -3.2,-0.992 -4.896,-0.992 -1.728,0 -3.36,0.32 -4.928,0.992 -1.504,0.64 -2.848,1.536 -4,2.688 -1.184,1.184 -2.08,2.528 -2.72,4.032 -0.672,1.568 -0.992,3.2 -0.992,4.896 0,1.728 0.32,3.36 0.992,4.928 0.64,1.504 1.536,2.848 2.72,4 1.152,1.184 2.496,2.08 4,2.72 1.568,0.672 3.2,0.992 4.928,0.992 z m 0,-20.224 c 2.016,0 3.936,0.8 5.376,2.24 1.408,1.408 2.208,3.328 2.208,5.376 0,2.016 -0.8,3.936 -2.208,5.376 -1.44,1.408 -3.36,2.208 -5.376,2.208 -2.048,0 -3.968,-0.8 -5.376,-2.208 -1.44,-1.44 -2.24,-3.36 -2.24,-5.376 0,-2.048 0.8,-3.968 2.24,-5.376 1.408,-1.44 3.328,-2.24 5.376,-2.24 z" stroke-width="0" stroke-linejoin="miter" stroke-miterlimit="2" fill="#4a310a" stroke="#4a310a" transform="translate(5.684341886080802e-14 411.096) translate(575.5045 26.064) scale(2) translate(-543.91975 24)"></path>
        <path id="path426633" style="font-style:normal;font-weight:700;font-size:32px;line-height:1;font-family:'Brandmark1 Bold Color';font-variant-ligatures:none;text-align:center;text-anchor:middle" d="m 584.75825,-14.656 4.448,15.776 h 4.352 l 7.968,-24.96 h -5.312 l -4.768,15.456 -4.32,-15.456 h -4.736 l -4.352,15.456 -4.768,-15.456 h -5.344 l 7.936,24.96 h 4.352 z" stroke-width="0" stroke-linejoin="miter" stroke-miterlimit="2" fill="#4a310a" stroke="#4a310a" transform="translate(5.684341886080802e-14 411.096) translate(623.5174999999998 26.384) scale(2) translate(-567.92625 23.84)"></path>
      </g>
      <g id="title" style="font-style:normal;font-weight:700;font-size:72px;line-height:1;font-family:'Brandmark1 Bold Color';font-variant-ligatures:normal;text-align:center;text-anchor:middle" transform="translate(0 0)">
        <g id="path426636" aria-label="E" transform="translate(0 316.04) translate(464.73199999999997 -35.824) scale(2.6) translate(-494.441 53.64)"> <path class="c1" d="M81.8186,128.08252h36.36279v-10.51367H81.8186V128.08252z M81.8186,105.47217h36.36279v-10.729H81.8186 V105.47217z M81.8186,71.91748v10.729h36.36279v-10.729H81.8186z" transform="translate(412.6224 -125.55748)" stroke-width="0" stroke-linejoin="miter" stroke-miterlimit="2" fill="#4a310a" stroke="#4a310a"></path> </g>
       </g>
      <image xlink:href="" id="icon" x="0" y="0" style="display: none;"></image>
    </g>
  </g>
</svg>